solid Mesh
  facet normal 0 -0.267529 -0.96355
    outer loop
      vertex -1.28417e-16 0.370138 11.129
      vertex -5.61294e-17 0.161782 11.1868
      vertex -0.5 0.161782 11.1868
    endloop
  endfacet
  facet normal 0 -0.0811535 -0.996702
    outer loop
      vertex -5.61294e-17 0.161782 11.1868
      vertex 2.12442e-32 1.1224e-16 11.2
      vertex -0.5 0.161782 11.1868
    endloop
  endfacet
  facet normal 0.00878912 -0.054136 -0.998495
    outer loop
      vertex -0.5 0.161782 11.1868
      vertex 2.12442e-32 1.1224e-16 11.2
      vertex -0.5 -0.0541389 11.1985
    endloop
  endfacet
  facet normal 0 0.0270668 -0.999634
    outer loop
      vertex 2.12442e-32 1.1224e-16 11.2
      vertex 1.87832e-17 -0.0541389 11.1985
      vertex -0.5 -0.0541389 11.1985
    endloop
  endfacet
  facet normal 0 0.161781 -0.986827
    outer loop
      vertex -0.5 -0.0541389 11.1985
      vertex 1.87832e-17 -0.0541389 11.1985
      vertex -0.5 -0.267528 11.1636
    endloop
  endfacet
  facet normal 0 0.161781 -0.986827
    outer loop
      vertex 1.87832e-17 -0.0541389 11.1985
      vertex 9.28175e-17 -0.267528 11.1636
      vertex -0.5 -0.267528 11.1636
    endloop
  endfacet
  facet normal 0 0.370142 -0.928975
    outer loop
      vertex -0.5 -0.267528 11.1636
      vertex 9.28175e-17 -0.267528 11.1636
      vertex -0.5 -0.468408 11.0835
    endloop
  endfacet
  facet normal 0 0.370142 -0.928975
    outer loop
      vertex 9.28175e-17 -0.267528 11.1636
      vertex 1.62512e-16 -0.468408 11.0835
      vertex -0.5 -0.468408 11.0835
    endloop
  endfacet
  facet normal 0 0.561185 -0.82769
    outer loop
      vertex -0.5 -0.468408 11.0835
      vertex 1.62512e-16 -0.468408 11.0835
      vertex -0.5 -0.647386 10.9622
    endloop
  endfacet
  facet normal 0 0.561185 -0.82769
    outer loop
      vertex 1.62512e-16 -0.468408 11.0835
      vertex 2.24607e-16 -0.647386 10.9622
      vertex -0.5 -0.647386 10.9622
    endloop
  endfacet
  facet normal 0 0.725997 -0.687698
    outer loop
      vertex -0.5 -0.647386 10.9622
      vertex 2.24607e-16 -0.647386 10.9622
      vertex -0.5 -0.796093 10.8052
    endloop
  endfacet
  facet normal 0 0.725997 -0.687698
    outer loop
      vertex 2.24607e-16 -0.647386 10.9622
      vertex 2.762e-16 -0.796093 10.8052
      vertex -0.5 -0.796093 10.8052
    endloop
  endfacet
  facet normal 0 0.856857 -0.515555
    outer loop
      vertex -0.5 -0.796093 10.8052
      vertex 2.762e-16 -0.796093 10.8052
      vertex -0.5 -0.907575 10.6199
    endloop
  endfacet
  facet normal 0 0.856857 -0.515555
    outer loop
      vertex 2.762e-16 -0.796093 10.8052
      vertex 3.14878e-16 -0.907575 10.6199
      vertex -0.5 -0.907575 10.6199
    endloop
  endfacet
  facet normal 0 0.947653 -0.319301
    outer loop
      vertex -0.5 -0.907575 10.6199
      vertex 3.14878e-16 -0.907575 10.6199
      vertex -0.5 -0.976621 10.415
    endloop
  endfacet
  facet normal 0 0.947653 -0.319301
    outer loop
      vertex 3.14878e-16 -0.907575 10.6199
      vertex 3.38833e-16 -0.976621 10.415
      vertex -0.5 -0.976621 10.415
    endloop
  endfacet
  facet normal 0 0.994138 -0.108119
    outer loop
      vertex -0.5 -0.976621 10.415
      vertex 3.38833e-16 -0.976621 10.415
      vertex -0.5 -1 10.2
    endloop
  endfacet
  facet normal 0 0.994138 -0.108119
    outer loop
      vertex 3.38833e-16 -0.976621 10.415
      vertex 3.46945e-16 -1 10.2
      vertex -0.5 -1 10.2
    endloop
  endfacet
  facet normal 0 0.998533 0.0541393
    outer loop
      vertex -0.5 -1 10.2
      vertex 3.46945e-16 -1 10.2
      vertex -0.5 -0.994138 10.0919
    endloop
  endfacet
  facet normal 0 0.998533 0.0541393
    outer loop
      vertex 3.46945e-16 -1 10.2
      vertex 3.44911e-16 -0.994138 10.0919
      vertex -0.5 -0.994138 10.0919
    endloop
  endfacet
  facet normal 0 0.976621 0.21497
    outer loop
      vertex -0.5 -0.994138 10.0919
      vertex 3.44911e-16 -0.994138 10.0919
      vertex -0.5 -0.947653 9.8807
    endloop
  endfacet
  facet normal 0 0.976621 0.21497
    outer loop
      vertex 3.44911e-16 -0.994138 10.0919
      vertex 3.28783e-16 -0.947653 9.8807
      vertex -0.5 -0.947653 9.8807
    endloop
  endfacet
  facet normal 0 0.907575 0.41989
    outer loop
      vertex -0.5 -0.947653 9.8807
      vertex 3.28783e-16 -0.947653 9.8807
      vertex -0.5 -0.856857 9.68445
    endloop
  endfacet
  facet normal 0 0.907575 0.41989
    outer loop
      vertex 3.28783e-16 -0.947653 9.8807
      vertex 2.97282e-16 -0.856857 9.68445
      vertex -0.5 -0.856857 9.68445
    endloop
  endfacet
  facet normal 0 0.796093 0.605174
    outer loop
      vertex -0.5 -0.856857 9.68445
      vertex 2.97282e-16 -0.856857 9.68445
      vertex -0.5 -0.725996 9.5123
    endloop
  endfacet
  facet normal 0 0.796093 0.605174
    outer loop
      vertex 2.97282e-16 -0.856857 9.68445
      vertex 2.5188e-16 -0.725996 9.5123
      vertex -0.5 -0.725996 9.5123
    endloop
  endfacet
  facet normal 0 0.647387 0.762161
    outer loop
      vertex -0.5 -0.725996 9.5123
      vertex 2.5188e-16 -0.725996 9.5123
      vertex -0.5 -0.561187 9.37231
    endloop
  endfacet
  facet normal 0 0.647387 0.762161
    outer loop
      vertex 2.5188e-16 -0.725996 9.5123
      vertex 1.94701e-16 -0.561187 9.37231
      vertex -0.5 -0.561187 9.37231
    endloop
  endfacet
  facet normal 0 0.468409 0.883512
    outer loop
      vertex -0.5 -0.561187 9.37231
      vertex 1.94701e-16 -0.561187 9.37231
      vertex -0.5 -0.370138 9.27102
    endloop
  endfacet
  facet normal 0 0.468409 0.883512
    outer loop
      vertex 1.94701e-16 -0.561187 9.37231
      vertex 1.28417e-16 -0.370138 9.27102
      vertex -0.5 -0.370138 9.27102
    endloop
  endfacet
  facet normal 0 0.267525 0.963551
    outer loop
      vertex -0.5 -0.370138 9.27102
      vertex 1.28417e-16 -0.370138 9.27102
      vertex -0.5 -0.161782 9.21317
    endloop
  endfacet
  facet normal 0 0.267525 0.963551
    outer loop
      vertex 1.28417e-16 -0.370138 9.27102
      vertex 5.61294e-17 -0.161782 9.21317
      vertex -0.5 -0.161782 9.21317
    endloop
  endfacet
  facet normal 0 0.0541381 0.998533
    outer loop
      vertex -0.5 -0.161782 9.21317
      vertex 5.61294e-17 -0.161782 9.21317
      vertex -0.5 0.0541389 9.20147
    endloop
  endfacet
  facet normal 0 0.0541381 0.998533
    outer loop
      vertex 5.61294e-17 -0.161782 9.21317
      vertex -1.87832e-17 0.0541389 9.20147
      vertex -0.5 0.0541389 9.20147
    endloop
  endfacet
  facet normal 0 -0.161781 0.986827
    outer loop
      vertex -0.5 0.0541389 9.20147
      vertex -1.87832e-17 0.0541389 9.20147
      vertex -0.5 0.267528 9.23645
    endloop
  endfacet
  facet normal 0 -0.161781 0.986827
    outer loop
      vertex -1.87832e-17 0.0541389 9.20147
      vertex -9.28175e-17 0.267528 9.23645
      vertex -0.5 0.267528 9.23645
    endloop
  endfacet
  facet normal 0 -0.370138 0.928977
    outer loop
      vertex -0.5 0.267528 9.23645
      vertex -9.28175e-17 0.267528 9.23645
      vertex -0.5 0.468408 9.31649
    endloop
  endfacet
  facet normal 0 -0.370138 0.928977
    outer loop
      vertex -9.28175e-17 0.267528 9.23645
      vertex -1.62512e-16 0.468408 9.31649
      vertex -0.5 0.468408 9.31649
    endloop
  endfacet
  facet normal 0 -0.51555 0.856859
    outer loop
      vertex -0.5 0.468408 9.31649
      vertex -1.62512e-16 0.468408 9.31649
      vertex -0.5 0.561187 9.37231
    endloop
  endfacet
  facet normal 0 -0.51555 0.856859
    outer loop
      vertex -1.62512e-16 0.468408 9.31649
      vertex -1.94701e-16 0.561187 9.37231
      vertex -0.5 0.561187 9.37231
    endloop
  endfacet
  facet normal 0 -0.605174 0.796093
    outer loop
      vertex -0.5 0.561187 9.37231
      vertex -1.94701e-16 0.561187 9.37231
      vertex -0.5 0.647386 9.43784
    endloop
  endfacet
  facet normal 0 -0.605174 0.796093
    outer loop
      vertex -1.94701e-16 0.561187 9.37231
      vertex -2.24607e-16 0.647386 9.43784
      vertex -0.5 0.647386 9.43784
    endloop
  endfacet
  facet normal 0 -0.725997 0.687698
    outer loop
      vertex -0.5 0.647386 9.43784
      vertex -2.24607e-16 0.647386 9.43784
      vertex -0.5 0.796093 9.59483
    endloop
  endfacet
  facet normal 0 -0.725997 0.687698
    outer loop
      vertex -2.24607e-16 0.647386 9.43784
      vertex -2.762e-16 0.796093 9.59483
      vertex -0.5 0.796093 9.59483
    endloop
  endfacet
  facet normal 0 -0.856857 0.515555
    outer loop
      vertex -0.5 0.796093 9.59483
      vertex -2.762e-16 0.796093 9.59483
      vertex -0.5 0.907575 9.78011
    endloop
  endfacet
  facet normal 0 -0.856857 0.515555
    outer loop
      vertex -2.762e-16 0.796093 9.59483
      vertex -3.14878e-16 0.907575 9.78011
      vertex -0.5 0.907575 9.78011
    endloop
  endfacet
  facet normal 0 -0.947653 0.319301
    outer loop
      vertex -0.5 0.907575 9.78011
      vertex -3.14878e-16 0.907575 9.78011
      vertex -0.5 0.976621 9.98503
    endloop
  endfacet
  facet normal 0 -0.947653 0.319301
    outer loop
      vertex -3.14878e-16 0.907575 9.78011
      vertex -3.38833e-16 0.976621 9.98503
      vertex -0.5 0.976621 9.98503
    endloop
  endfacet
  facet normal 0 -0.994138 0.108119
    outer loop
      vertex -0.5 0.976621 9.98503
      vertex -3.38833e-16 0.976621 9.98503
      vertex -0.5 1 10.2
    endloop
  endfacet
  facet normal 0 -0.994138 0.108119
    outer loop
      vertex -3.38833e-16 0.976621 9.98503
      vertex -3.46945e-16 1 10.2
      vertex -0.5 1 10.2
    endloop
  endfacet
  facet normal 0 -0.994138 -0.108119
    outer loop
      vertex -0.5 1 10.2
      vertex -3.46945e-16 1 10.2
      vertex -0.5 0.976621 10.415
    endloop
  endfacet
  facet normal 0 -0.994138 -0.108119
    outer loop
      vertex -3.46945e-16 1 10.2
      vertex -3.38833e-16 0.976621 10.415
      vertex -0.5 0.976621 10.415
    endloop
  endfacet
  facet normal 0 -0.947653 -0.319301
    outer loop
      vertex -0.5 0.976621 10.415
      vertex -3.38833e-16 0.976621 10.415
      vertex -0.5 0.907575 10.6199
    endloop
  endfacet
  facet normal 0 -0.947653 -0.319301
    outer loop
      vertex -3.38833e-16 0.976621 10.415
      vertex -3.14878e-16 0.907575 10.6199
      vertex -0.5 0.907575 10.6199
    endloop
  endfacet
  facet normal 0 -0.856857 -0.515555
    outer loop
      vertex -0.5 0.907575 10.6199
      vertex -3.14878e-16 0.907575 10.6199
      vertex -0.5 0.796093 10.8052
    endloop
  endfacet
  facet normal 0 -0.856857 -0.515555
    outer loop
      vertex -3.14878e-16 0.907575 10.6199
      vertex -2.762e-16 0.796093 10.8052
      vertex -0.5 0.796093 10.8052
    endloop
  endfacet
  facet normal 0 -0.725997 -0.687698
    outer loop
      vertex -0.5 0.796093 10.8052
      vertex -2.762e-16 0.796093 10.8052
      vertex -0.5 0.647386 10.9622
    endloop
  endfacet
  facet normal 0 -0.725997 -0.687698
    outer loop
      vertex -2.762e-16 0.796093 10.8052
      vertex -2.24607e-16 0.647386 10.9622
      vertex -0.5 0.647386 10.9622
    endloop
  endfacet
  facet normal 0 -0.605174 -0.796093
    outer loop
      vertex -0.5 0.647386 10.9622
      vertex -2.24607e-16 0.647386 10.9622
      vertex -0.5 0.561187 11.0277
    endloop
  endfacet
  facet normal 0 -0.605174 -0.796093
    outer loop
      vertex -2.24607e-16 0.647386 10.9622
      vertex -1.94701e-16 0.561187 11.0277
      vertex -0.5 0.561187 11.0277
    endloop
  endfacet
  facet normal 0 -0.468409 -0.883512
    outer loop
      vertex -0.5 0.561187 11.0277
      vertex -1.94701e-16 0.561187 11.0277
      vertex -0.5 0.370138 11.129
    endloop
  endfacet
  facet normal 0 -0.468409 -0.883512
    outer loop
      vertex -1.94701e-16 0.561187 11.0277
      vertex -1.28417e-16 0.370138 11.129
      vertex -0.5 0.370138 11.129
    endloop
  endfacet
  facet normal 0 -0.267529 -0.96355
    outer loop
      vertex -0.5 0.370138 11.129
      vertex -1.28417e-16 0.370138 11.129
      vertex -0.5 0.161782 11.1868
    endloop
  endfacet
  facet normal -1 0 0
    outer loop
      vertex -0.5 -0.161782 9.21317
      vertex -0.5 0.0541389 9.20147
      vertex -0.5 -3.16587e-15 7.8906
    endloop
  endfacet
  facet normal -1 0 0
    outer loop
      vertex -0.5 0.161782 11.1868
      vertex -0.5 -0.0541389 11.1985
      vertex -0.5 3.57787e-16 12.5094
    endloop
  endfacet
  facet normal -1 0 0
    outer loop
      vertex -0.5 -0.947653 9.8807
      vertex -0.5 -0.856857 9.68445
      vertex -0.5 -2 9.0453
    endloop
  endfacet
  facet normal -1 0 0
    outer loop
      vertex -0.5 -0.856857 9.68445
      vertex -0.5 -0.725996 9.5123
      vertex -0.5 -2 9.0453
    endloop
  endfacet
  facet normal -1 0 0
    outer loop
      vertex -0.5 -0.725996 9.5123
      vertex -0.5 -0.561187 9.37231
      vertex -0.5 -2 9.0453
    endloop
  endfacet
  facet normal -1 0 0
    outer loop
      vertex -0.5 -2 9.0453
      vertex -0.5 -0.561187 9.37231
      vertex -0.5 -3.16587e-15 7.8906
    endloop
  endfacet
  facet normal -1 0 0
    outer loop
      vertex -0.5 -0.561187 9.37231
      vertex -0.5 -0.370138 9.27102
      vertex -0.5 -3.16587e-15 7.8906
    endloop
  endfacet
  facet normal -1 0 0
    outer loop
      vertex -0.5 -3.16587e-15 7.8906
      vertex -0.5 -0.370138 9.27102
      vertex -0.5 -0.161782 9.21317
    endloop
  endfacet
  facet normal -1 0 0
    outer loop
      vertex -0.5 0.647386 9.43784
      vertex -0.5 0.796093 9.59483
      vertex -0.5 2 9.0453
    endloop
  endfacet
  facet normal -1 0 0
    outer loop
      vertex -0.5 -0.796093 10.8052
      vertex -0.5 -0.907575 10.6199
      vertex -0.5 -2 11.3547
    endloop
  endfacet
  facet normal -1 0 0
    outer loop
      vertex -0.5 -0.0541389 11.1985
      vertex -0.5 -0.267528 11.1636
      vertex -0.5 3.57787e-16 12.5094
    endloop
  endfacet
  facet normal -1 0 0
    outer loop
      vertex -0.5 -0.267528 11.1636
      vertex -0.5 -0.468408 11.0835
      vertex -0.5 3.57787e-16 12.5094
    endloop
  endfacet
  facet normal -1 0 0
    outer loop
      vertex -0.5 3.57787e-16 12.5094
      vertex -0.5 -0.468408 11.0835
      vertex -0.5 -2 11.3547
    endloop
  endfacet
  facet normal -1 0 0
    outer loop
      vertex -0.5 -0.468408 11.0835
      vertex -0.5 -0.647386 10.9622
      vertex -0.5 -2 11.3547
    endloop
  endfacet
  facet normal -1 0 0
    outer loop
      vertex -0.5 -2 11.3547
      vertex -0.5 -0.647386 10.9622
      vertex -0.5 -0.796093 10.8052
    endloop
  endfacet
  facet normal -1 0 0
    outer loop
      vertex -0.5 -0.907575 10.6199
      vertex -0.5 -0.976621 10.415
      vertex -0.5 -2 11.3547
    endloop
  endfacet
  facet normal -1 0 0
    outer loop
      vertex -0.5 -0.976621 10.415
      vertex -0.5 -1 10.2
      vertex -0.5 -2 11.3547
    endloop
  endfacet
  facet normal -1 0 0
    outer loop
      vertex -0.5 -2 11.3547
      vertex -0.5 -1 10.2
      vertex -0.5 -2 9.0453
    endloop
  endfacet
  facet normal -1 0 0
    outer loop
      vertex -0.5 -1 10.2
      vertex -0.5 -0.994138 10.0919
      vertex -0.5 -2 9.0453
    endloop
  endfacet
  facet normal -1 0 0
    outer loop
      vertex -0.5 -2 9.0453
      vertex -0.5 -0.994138 10.0919
      vertex -0.5 -0.947653 9.8807
    endloop
  endfacet
  facet normal -1 0 0
    outer loop
      vertex -0.5 0.976621 10.415
      vertex -0.5 0.907575 10.6199
      vertex -0.5 2 11.3547
    endloop
  endfacet
  facet normal -1 0 0
    outer loop
      vertex -0.5 0.907575 10.6199
      vertex -0.5 0.796093 10.8052
      vertex -0.5 2 11.3547
    endloop
  endfacet
  facet normal -1 0 0
    outer loop
      vertex -0.5 0.0541389 9.20147
      vertex -0.5 0.267528 9.23645
      vertex -0.5 -3.16587e-15 7.8906
    endloop
  endfacet
  facet normal -1 0 0
    outer loop
      vertex -0.5 0.267528 9.23645
      vertex -0.5 0.468408 9.31649
      vertex -0.5 -3.16587e-15 7.8906
    endloop
  endfacet
  facet normal -1 0 0
    outer loop
      vertex -0.5 -3.16587e-15 7.8906
      vertex -0.5 0.468408 9.31649
      vertex -0.5 2 9.0453
    endloop
  endfacet
  facet normal -1 0 0
    outer loop
      vertex -0.5 0.468408 9.31649
      vertex -0.5 0.561187 9.37231
      vertex -0.5 2 9.0453
    endloop
  endfacet
  facet normal -1 0 0
    outer loop
      vertex -0.5 2 9.0453
      vertex -0.5 0.561187 9.37231
      vertex -0.5 0.647386 9.43784
    endloop
  endfacet
  facet normal -1 0 0
    outer loop
      vertex -0.5 0.796093 9.59483
      vertex -0.5 0.907575 9.78011
      vertex -0.5 2 9.0453
    endloop
  endfacet
  facet normal -1 0 0
    outer loop
      vertex -0.5 0.907575 9.78011
      vertex -0.5 0.976621 9.98503
      vertex -0.5 2 9.0453
    endloop
  endfacet
  facet normal -1 0 0
    outer loop
      vertex -0.5 2 9.0453
      vertex -0.5 0.976621 9.98503
      vertex -0.5 2 11.3547
    endloop
  endfacet
  facet normal -1 0 0
    outer loop
      vertex -0.5 0.976621 9.98503
      vertex -0.5 1 10.2
      vertex -0.5 2 11.3547
    endloop
  endfacet
  facet normal -1 0 0
    outer loop
      vertex -0.5 2 11.3547
      vertex -0.5 1 10.2
      vertex -0.5 0.976621 10.415
    endloop
  endfacet
  facet normal -1 0 0
    outer loop
      vertex -0.5 0.796093 10.8052
      vertex -0.5 0.647386 10.9622
      vertex -0.5 2 11.3547
    endloop
  endfacet
  facet normal -1 0 0
    outer loop
      vertex -0.5 0.647386 10.9622
      vertex -0.5 0.561187 11.0277
      vertex -0.5 2 11.3547
    endloop
  endfacet
  facet normal -1 0 0
    outer loop
      vertex -0.5 2 11.3547
      vertex -0.5 0.561187 11.0277
      vertex -0.5 3.57787e-16 12.5094
    endloop
  endfacet
  facet normal -1 0 0
    outer loop
      vertex -0.5 0.561187 11.0277
      vertex -0.5 0.370138 11.129
      vertex -0.5 3.57787e-16 12.5094
    endloop
  endfacet
  facet normal -1 0 0
    outer loop
      vertex -0.5 3.57787e-16 12.5094
      vertex -0.5 0.370138 11.129
      vertex -0.5 0.161782 11.1868
    endloop
  endfacet
  facet normal -1 0 0
    outer loop
      vertex -2.2 -5.2 7.7
      vertex -2.2 -3.7 7.7
      vertex -2.2 -5.2 0
    endloop
  endfacet
  facet normal -1 0 0
    outer loop
      vertex -2.2 -3.7 7.7
      vertex -2.2 -3.7 0
      vertex -2.2 -5.2 0
    endloop
  endfacet
  facet normal 0 -0.5 -0.866025
    outer loop
      vertex -0.5 2 11.3547
      vertex -0.5 3.57787e-16 12.5094
      vertex -2 2 11.3547
    endloop
  endfacet
  facet normal 1.73472e-16 -0.5 -0.866025
    outer loop
      vertex -0.5 3.57787e-16 12.5094
      vertex -2 -1.6263e-16 12.5094
      vertex -2 2 11.3547
    endloop
  endfacet
  facet normal -1 0 0
    outer loop
      vertex -6.2 -3.7 7.7
      vertex -6.2 3.7 7.7
      vertex -6.2 -3.7 0
    endloop
  endfacet
  facet normal -1 0 0
    outer loop
      vertex -6.2 3.7 7.7
      vertex -6.2 3.7 0
      vertex -6.2 -3.7 0
    endloop
  endfacet
  facet normal 0 1 0
    outer loop
      vertex -0.5 -2 11.3547
      vertex -0.5 -2 9.0453
      vertex -2 -2 11.3547
    endloop
  endfacet
  facet normal 0 1 0
    outer loop
      vertex -0.5 -2 9.0453
      vertex -2 -2 9.0453
      vertex -2 -2 11.3547
    endloop
  endfacet
  facet normal -1 0 0
    outer loop
      vertex -2.2 3.7 7.7
      vertex -2.2 5.2 7.7
      vertex -2.2 3.7 0
    endloop
  endfacet
  facet normal -1 0 0
    outer loop
      vertex -2.2 5.2 7.7
      vertex -2.2 5.2 0
      vertex -2.2 3.7 0
    endloop
  endfacet
  facet normal 0 0.5 0.866025
    outer loop
      vertex -0.5 -2 9.0453
      vertex -0.5 -3.16587e-15 7.8906
      vertex -2 -2 9.0453
    endloop
  endfacet
  facet normal -1.73472e-16 0.5 0.866025
    outer loop
      vertex -0.5 -3.16587e-15 7.8906
      vertex -2 -3.68629e-15 7.8906
      vertex -2 -2 9.0453
    endloop
  endfacet
  facet normal 0 1 0
    outer loop
      vertex -2.2 5.2 7.7
      vertex 0 5.2 7.7
      vertex -2.2 5.2 0
    endloop
  endfacet
  facet normal 0 1 0
    outer loop
      vertex 0 5.2 7.7
      vertex 0 5.2 0
      vertex -2.2 5.2 0
    endloop
  endfacet
  facet normal 0 1 0
    outer loop
      vertex -6.2 3.7 7.7
      vertex -2.2 3.7 7.7
      vertex -6.2 3.7 0
    endloop
  endfacet
  facet normal 0 1 0
    outer loop
      vertex -2.2 3.7 7.7
      vertex -2.2 3.7 0
      vertex -6.2 3.7 0
    endloop
  endfacet
  facet normal 0 -1 0
    outer loop
      vertex -5.2 3.2 2.2
      vertex -5.7 3.2 2.2
      vertex -5.7 3.2 0.5
    endloop
  endfacet
  facet normal 0 -1 0
    outer loop
      vertex -5.2 3.2 0.5
      vertex -5.2 3.2 0
      vertex -1.7 3.2 0.5
    endloop
  endfacet
  facet normal 0 -1 0
    outer loop
      vertex -5.2 3.2 0
      vertex 0 3.2 0
      vertex -1.7 3.2 0.5
    endloop
  endfacet
  facet normal 0 -1 0
    outer loop
      vertex -1.7 3.2 0.5
      vertex 0 3.2 0
      vertex 0 3.2 0.5
    endloop
  endfacet
  facet normal 0 -1 0
    outer loop
      vertex -5.7 3.2 0.5
      vertex -5.2 3.2 0.5
      vertex -5.2 3.2 2.2
    endloop
  endfacet
  facet normal 0 -1 0
    outer loop
      vertex -5.2 3.2 0.5
      vertex -1.7 3.2 0.5
      vertex -5.2 3.2 2.2
    endloop
  endfacet
  facet normal 0 -1 0
    outer loop
      vertex -5.2 3.2 2.2
      vertex -1.7 3.2 0.5
      vertex -5.2 3.2 7.2
    endloop
  endfacet
  facet normal 0 -1 0
    outer loop
      vertex -1.7 3.2 0.5
      vertex -1.7 3.2 2.2
      vertex -5.2 3.2 7.2
    endloop
  endfacet
  facet normal 0 -1 0
    outer loop
      vertex -5.2 3.2 7.2
      vertex -1.7 3.2 2.2
      vertex 0 3.2 7.2
    endloop
  endfacet
  facet normal 0 -1 0
    outer loop
      vertex -1.7 3.2 2.2
      vertex 0 3.2 2.2
      vertex 0 3.2 7.2
    endloop
  endfacet
  facet normal 0 -1 0
    outer loop
      vertex 0 4.7 2.2
      vertex -1.7 4.7 2.2
      vertex 0 4.7 0.5
    endloop
  endfacet
  facet normal 0 -1 0
    outer loop
      vertex -1.7 4.7 2.2
      vertex -1.7 4.7 0.5
      vertex 0 4.7 0.5
    endloop
  endfacet
  facet normal 1 0 0
    outer loop
      vertex -5.2 3.2 0.5
      vertex -5.2 -3.2 0.5
      vertex -5.2 3.2 0
    endloop
  endfacet
  facet normal 1 0 0
    outer loop
      vertex -5.2 -3.2 0.5
      vertex -5.2 -3.2 0
      vertex -5.2 3.2 0
    endloop
  endfacet
  facet normal 0 -1 0
    outer loop
      vertex 0 -5.2 7.7
      vertex -2.2 -5.2 7.7
      vertex 0 -5.2 0
    endloop
  endfacet
  facet normal 0 -1 0
    outer loop
      vertex -2.2 -5.2 7.7
      vertex -2.2 -5.2 0
      vertex 0 -5.2 0
    endloop
  endfacet
  facet normal 0 -1 0
    outer loop
      vertex -0.5 2 9.0453
      vertex -0.5 2 11.3547
      vertex -2 2 9.0453
    endloop
  endfacet
  facet normal 0 -1 0
    outer loop
      vertex -0.5 2 11.3547
      vertex -2 2 11.3547
      vertex -2 2 9.0453
    endloop
  endfacet
  facet normal 0 0 1
    outer loop
      vertex -5.2 3.2 0.5
      vertex -5.7 3.2 0.5
      vertex -5.2 -3.2 0.5
    endloop
  endfacet
  facet normal 0 0 1
    outer loop
      vertex -5.7 3.2 0.5
      vertex -5.7 -3.2 0.5
      vertex -5.2 -3.2 0.5
    endloop
  endfacet
  facet normal 0 0 1
    outer loop
      vertex -2.2 -5.2 7.7
      vertex 0 -5.2 7.7
      vertex -2.2 -3.7 7.7
    endloop
  endfacet
  facet normal 0 0 1
    outer loop
      vertex 0 -5.2 7.7
      vertex 0 -2.5 7.7
      vertex -2.2 -3.7 7.7
    endloop
  endfacet
  facet normal 0 0 1
    outer loop
      vertex -2.2 -3.7 7.7
      vertex 0 -2.5 7.7
      vertex -2 -2.5 7.7
    endloop
  endfacet
  facet normal 0 0 1
    outer loop
      vertex 0 5.2 7.7
      vertex -2.2 5.2 7.7
      vertex 0 2.5 7.7
    endloop
  endfacet
  facet normal 0 0 1
    outer loop
      vertex -2.2 5.2 7.7
      vertex -2.2 3.7 7.7
      vertex 0 2.5 7.7
    endloop
  endfacet
  facet normal 0 0 1
    outer loop
      vertex 0 2.5 7.7
      vertex -2.2 3.7 7.7
      vertex -2 2.5 7.7
    endloop
  endfacet
  facet normal 0 0 1
    outer loop
      vertex -2.2 3.7 7.7
      vertex -6.2 3.7 7.7
      vertex -2 2.5 7.7
    endloop
  endfacet
  facet normal 0 0 1
    outer loop
      vertex -2 2.5 7.7
      vertex -6.2 3.7 7.7
      vertex -2 -2.5 7.7
    endloop
  endfacet
  facet normal 0 0 1
    outer loop
      vertex -6.2 3.7 7.7
      vertex -6.2 -3.7 7.7
      vertex -2 -2.5 7.7
    endloop
  endfacet
  facet normal 0 0 1
    outer loop
      vertex -2 -2.5 7.7
      vertex -6.2 -3.7 7.7
      vertex -2.2 -3.7 7.7
    endloop
  endfacet
  facet normal 0 0 -1
    outer loop
      vertex -1.7 3.2 2.2
      vertex -1.7 4.7 2.2
      vertex 0 3.2 2.2
    endloop
  endfacet
  facet normal 0 0 -1
    outer loop
      vertex -1.7 4.7 2.2
      vertex 0 4.7 2.2
      vertex 0 3.2 2.2
    endloop
  endfacet
  facet normal 0 0 1
    outer loop
      vertex -1.7 -3.2 0.5
      vertex -1.7 -4.7 0.5
      vertex 0 -3.2 0.5
    endloop
  endfacet
  facet normal 0 0 1
    outer loop
      vertex -1.7 -4.7 0.5
      vertex 0 -4.7 0.5
      vertex 0 -3.2 0.5
    endloop
  endfacet
  facet normal 0 -1 0
    outer loop
      vertex -2.2 -3.7 7.7
      vertex -6.2 -3.7 7.7
      vertex -2.2 -3.7 0
    endloop
  endfacet
  facet normal 0 -1 0
    outer loop
      vertex -6.2 -3.7 7.7
      vertex -6.2 -3.7 0
      vertex -2.2 -3.7 0
    endloop
  endfacet
  facet normal -1.73472e-16 0.5 -0.866025
    outer loop
      vertex -0.5 3.57787e-16 12.5094
      vertex -0.5 -2 11.3547
      vertex -2 -1.6263e-16 12.5094
    endloop
  endfacet
  facet normal 0 0.5 -0.866025
    outer loop
      vertex -0.5 -2 11.3547
      vertex -2 -2 11.3547
      vertex -2 -1.6263e-16 12.5094
    endloop
  endfacet
  facet normal 0 0 -1
    outer loop
      vertex -2.2 5.2 0
      vertex 0 5.2 0
      vertex -2.2 3.7 0
    endloop
  endfacet
  facet normal 0 0 -1
    outer loop
      vertex 0 5.2 0
      vertex 0 3.2 0
      vertex -2.2 3.7 0
    endloop
  endfacet
  facet normal 0 0 -1
    outer loop
      vertex -2.2 3.7 0
      vertex 0 3.2 0
      vertex -5.2 3.2 0
    endloop
  endfacet
  facet normal 0 0 -1
    outer loop
      vertex 0 -5.2 0
      vertex -2.2 -5.2 0
      vertex 0 -3.2 0
    endloop
  endfacet
  facet normal 0 0 -1
    outer loop
      vertex -2.2 -5.2 0
      vertex -2.2 -3.7 0
      vertex 0 -3.2 0
    endloop
  endfacet
  facet normal 0 0 -1
    outer loop
      vertex 0 -3.2 0
      vertex -2.2 -3.7 0
      vertex -5.2 -3.2 0
    endloop
  endfacet
  facet normal 0 0 -1
    outer loop
      vertex -2.2 -3.7 0
      vertex -6.2 -3.7 0
      vertex -5.2 -3.2 0
    endloop
  endfacet
  facet normal 0 0 -1
    outer loop
      vertex -5.2 -3.2 0
      vertex -6.2 -3.7 0
      vertex -5.2 3.2 0
    endloop
  endfacet
  facet normal 0 0 -1
    outer loop
      vertex -6.2 -3.7 0
      vertex -6.2 3.7 0
      vertex -5.2 3.2 0
    endloop
  endfacet
  facet normal 0 0 -1
    outer loop
      vertex -5.2 3.2 0
      vertex -6.2 3.7 0
      vertex -2.2 3.7 0
    endloop
  endfacet
  facet normal -1 0 0
    outer loop
      vertex -2 2.5 12.7
      vertex -2 -1.6263e-16 12.5094
      vertex -2 -2.5 12.7
    endloop
  endfacet
  facet normal -1 0 0
    outer loop
      vertex -2 -1.6263e-16 12.5094
      vertex -2 -2 11.3547
      vertex -2 -2.5 12.7
    endloop
  endfacet
  facet normal -1 0 0
    outer loop
      vertex -2 -2.5 12.7
      vertex -2 -2 11.3547
      vertex -2 -2.5 7.7
    endloop
  endfacet
  facet normal -1 0 0
    outer loop
      vertex -2 -2 11.3547
      vertex -2 -2 9.0453
      vertex -2 -2.5 7.7
    endloop
  endfacet
  facet normal -1 0 0
    outer loop
      vertex -2 -2 9.0453
      vertex -2 -3.68629e-15 7.8906
      vertex -2 -2.5 7.7
    endloop
  endfacet
  facet normal -1 0 0
    outer loop
      vertex -2 -2.5 7.7
      vertex -2 -3.68629e-15 7.8906
      vertex -2 2.5 7.7
    endloop
  endfacet
  facet normal -1 0 0
    outer loop
      vertex -2 -3.68629e-15 7.8906
      vertex -2 2 9.0453
      vertex -2 2.5 7.7
    endloop
  endfacet
  facet normal -1 0 0
    outer loop
      vertex -2 2.5 7.7
      vertex -2 2 9.0453
      vertex -2 2.5 12.7
    endloop
  endfacet
  facet normal -1 0 0
    outer loop
      vertex -2 2 9.0453
      vertex -2 2 11.3547
      vertex -2 2.5 12.7
    endloop
  endfacet
  facet normal -1 0 0
    outer loop
      vertex -2 2.5 12.7
      vertex -2 2 11.3547
      vertex -2 -1.6263e-16 12.5094
    endloop
  endfacet
  facet normal 0 0 -1
    outer loop
      vertex 0 -4.7 2.2
      vertex -1.7 -4.7 2.2
      vertex 0 -3.2 2.2
    endloop
  endfacet
  facet normal 0 0 -1
    outer loop
      vertex -1.7 -4.7 2.2
      vertex -1.7 -3.2 2.2
      vertex 0 -3.2 2.2
    endloop
  endfacet
  facet normal 0 0 -1
    outer loop
      vertex -5.7 -3.2 2.2
      vertex -5.7 3.2 2.2
      vertex -5.2 -3.2 2.2
    endloop
  endfacet
  facet normal 0 0 -1
    outer loop
      vertex -5.7 3.2 2.2
      vertex -5.2 3.2 2.2
      vertex -5.2 -3.2 2.2
    endloop
  endfacet
  facet normal 0 0 1
    outer loop
      vertex -2 2.5 12.7
      vertex -2 -2.5 12.7
      vertex 0 2.5 12.7
    endloop
  endfacet
  facet normal 0 0 1
    outer loop
      vertex -2 -2.5 12.7
      vertex 0 -2.5 12.7
      vertex 0 2.5 12.7
    endloop
  endfacet
  facet normal 1 0 0
    outer loop
      vertex -1.7 4.7 2.2
      vertex -1.7 3.2 2.2
      vertex -1.7 4.7 0.5
    endloop
  endfacet
  facet normal 1 0 0
    outer loop
      vertex -1.7 3.2 2.2
      vertex -1.7 3.2 0.5
      vertex -1.7 4.7 0.5
    endloop
  endfacet
  facet normal 1 0 0
    outer loop
      vertex -5.7 3.2 2.2
      vertex -5.7 -3.2 2.2
      vertex -5.7 3.2 0.5
    endloop
  endfacet
  facet normal 1 0 0
    outer loop
      vertex -5.7 -3.2 2.2
      vertex -5.7 -3.2 0.5
      vertex -5.7 3.2 0.5
    endloop
  endfacet
  facet normal 0 1 0
    outer loop
      vertex 0 -3.2 0.5
      vertex 0 -3.2 0
      vertex -1.7 -3.2 0.5
    endloop
  endfacet
  facet normal 0 1 0
    outer loop
      vertex 0 -3.2 0
      vertex -5.2 -3.2 0
      vertex -1.7 -3.2 0.5
    endloop
  endfacet
  facet normal 0 1 0
    outer loop
      vertex -1.7 -3.2 0.5
      vertex -5.2 -3.2 0
      vertex -1.7 -3.2 2.2
    endloop
  endfacet
  facet normal 0 1 0
    outer loop
      vertex -5.2 -3.2 0
      vertex -5.2 -3.2 0.5
      vertex -1.7 -3.2 2.2
    endloop
  endfacet
  facet normal 0 1 0
    outer loop
      vertex 0 -3.2 7.2
      vertex 0 -3.2 2.2
      vertex -5.2 -3.2 7.2
    endloop
  endfacet
  facet normal 0 1 0
    outer loop
      vertex 0 -3.2 2.2
      vertex -1.7 -3.2 2.2
      vertex -5.2 -3.2 7.2
    endloop
  endfacet
  facet normal 0 1 0
    outer loop
      vertex -5.2 -3.2 7.2
      vertex -1.7 -3.2 2.2
      vertex -5.2 -3.2 2.2
    endloop
  endfacet
  facet normal 0 1 0
    outer loop
      vertex -1.7 -3.2 2.2
      vertex -5.2 -3.2 0.5
      vertex -5.2 -3.2 2.2
    endloop
  endfacet
  facet normal 0 1 0
    outer loop
      vertex -5.2 -3.2 2.2
      vertex -5.2 -3.2 0.5
      vertex -5.7 -3.2 2.2
    endloop
  endfacet
  facet normal 0 1 0
    outer loop
      vertex -5.2 -3.2 0.5
      vertex -5.7 -3.2 0.5
      vertex -5.7 -3.2 2.2
    endloop
  endfacet
  facet normal 1 0 0
    outer loop
      vertex -1.7 -3.2 2.2
      vertex -1.7 -4.7 2.2
      vertex -1.7 -3.2 0.5
    endloop
  endfacet
  facet normal 1 0 0
    outer loop
      vertex -1.7 -4.7 2.2
      vertex -1.7 -4.7 0.5
      vertex -1.7 -3.2 0.5
    endloop
  endfacet
  facet normal 0 1 0
    outer loop
      vertex -1.7 -4.7 2.2
      vertex 0 -4.7 2.2
      vertex -1.7 -4.7 0.5
    endloop
  endfacet
  facet normal 0 1 0
    outer loop
      vertex 0 -4.7 2.2
      vertex 0 -4.7 0.5
      vertex -1.7 -4.7 0.5
    endloop
  endfacet
  facet normal 0 0 1
    outer loop
      vertex 0 4.7 0.5
      vertex -1.7 4.7 0.5
      vertex 0 3.2 0.5
    endloop
  endfacet
  facet normal 0 0 1
    outer loop
      vertex -1.7 4.7 0.5
      vertex -1.7 3.2 0.5
      vertex 0 3.2 0.5
    endloop
  endfacet
  facet normal 1 0 0
    outer loop
      vertex -5.2 -3.2 2.2
      vertex -5.2 3.2 2.2
      vertex -5.2 -3.2 7.2
    endloop
  endfacet
  facet normal 1 0 0
    outer loop
      vertex -5.2 3.2 2.2
      vertex -5.2 3.2 7.2
      vertex -5.2 -3.2 7.2
    endloop
  endfacet
  facet normal 1 0 0
    outer loop
      vertex 0 -5.2 0
      vertex 0 -3.2 0
      vertex 0 -3.2 0.5
    endloop
  endfacet
  facet normal 1 0 0
    outer loop
      vertex 0 -3.2 0.5
      vertex 0 -4.7 0.5
      vertex 0 -5.2 0
    endloop
  endfacet
  facet normal 1 0 0
    outer loop
      vertex 0 -4.7 0.5
      vertex 0 -4.7 2.2
      vertex 0 -5.2 0
    endloop
  endfacet
  facet normal 1 0 0
    outer loop
      vertex 0 -5.2 0
      vertex 0 -4.7 2.2
      vertex 0 -5.2 7.7
    endloop
  endfacet
  facet normal 1 2.72201e-16 4.5592e-16
    outer loop
      vertex -9.28175e-17 0.267528 9.23645
      vertex -1.87832e-17 0.0541389 9.20147
      vertex 0 2.5 7.7
    endloop
  endfacet
  facet normal 1 0 0
    outer loop
      vertex 0 3.2 7.2
      vertex 0 3.2 2.2
      vertex 0 4.7 2.2
    endloop
  endfacet
  facet normal 1 -1.97735e-16 0
    outer loop
      vertex -3.14878e-16 0.907575 10.6199
      vertex 0 2.5 7.7
      vertex 0 2.5 12.7
    endloop
  endfacet
  facet normal 1 1.5052e-16 2.89706e-16
    outer loop
      vertex 2.24607e-16 -0.647386 10.9622
      vertex 1.62512e-16 -0.468408 11.0835
      vertex 0 -2.5 12.7
    endloop
  endfacet
  facet normal 1 0 0
    outer loop
      vertex 0 -4.7 2.2
      vertex 0 -3.2 2.2
      vertex 0 -5.2 7.7
    endloop
  endfacet
  facet normal 1 0 0
    outer loop
      vertex 0 -3.2 2.2
      vertex 0 -3.2 7.2
      vertex 0 -5.2 7.7
    endloop
  endfacet
  facet normal 1 0 0
    outer loop
      vertex 0 -5.2 7.7
      vertex 0 -3.2 7.2
      vertex 0 -2.5 7.7
    endloop
  endfacet
  facet normal 1 0 0
    outer loop
      vertex 0 -3.2 7.2
      vertex 0 3.2 7.2
      vertex 0 -2.5 7.7
    endloop
  endfacet
  facet normal 1 0 0
    outer loop
      vertex 0 3.2 0.5
      vertex 0 3.2 0
      vertex 0 4.7 0.5
    endloop
  endfacet
  facet normal 1 0 0
    outer loop
      vertex 0 3.2 0
      vertex 0 5.2 0
      vertex 0 4.7 0.5
    endloop
  endfacet
  facet normal 1 0 0
    outer loop
      vertex 0 4.7 0.5
      vertex 0 5.2 0
      vertex 0 4.7 2.2
    endloop
  endfacet
  facet normal 1 0 0
    outer loop
      vertex 0 5.2 0
      vertex 0 5.2 7.7
      vertex 0 4.7 2.2
    endloop
  endfacet
  facet normal 1 0 0
    outer loop
      vertex 0 4.7 2.2
      vertex 0 5.2 7.7
      vertex 0 3.2 7.2
    endloop
  endfacet
  facet normal 1 2.35575e-16 -4.01115e-16
    outer loop
      vertex -5.61294e-17 0.161782 11.1868
      vertex -1.28417e-16 0.370138 11.129
      vertex 0 2.5 12.7
    endloop
  endfacet
  facet normal 1 1.76644e-16 -3.21221e-16
    outer loop
      vertex -1.28417e-16 0.370138 11.129
      vertex -1.94701e-16 0.561187 11.0277
      vertex 0 2.5 12.7
    endloop
  endfacet
  facet normal 1 -1.07823e-15 -4.80197e-16
    outer loop
      vertex -3.14878e-16 0.907575 10.6199
      vertex -3.38833e-16 0.976621 10.415
      vertex 0 2.5 7.7
    endloop
  endfacet
  facet normal 1 -3.59314e-16 -7.68106e-17
    outer loop
      vertex -3.38833e-16 0.976621 10.415
      vertex -3.46945e-16 1 10.2
      vertex 0 2.5 7.7
    endloop
  endfacet
  facet normal 1 -1.42567e-16 5.32376e-17
    outer loop
      vertex 0 2.5 7.7
      vertex -3.46945e-16 1 10.2
      vertex -3.38833e-16 0.976621 9.98503
    endloop
  endfacet
  facet normal 1 -3.12717e-17 1.27436e-16
    outer loop
      vertex -3.38833e-16 0.976621 9.98503
      vertex -3.14878e-16 0.907575 9.78011
      vertex 0 2.5 7.7
    endloop
  endfacet
  facet normal 1 4.19639e-17 1.83501e-16
    outer loop
      vertex -3.14878e-16 0.907575 9.78011
      vertex -2.762e-16 0.796093 9.59483
      vertex 0 2.5 7.7
    endloop
  endfacet
  facet normal 1 9.90403e-17 2.34827e-16
    outer loop
      vertex 0 2.5 7.7
      vertex -2.762e-16 0.796093 9.59483
      vertex -2.24607e-16 0.647386 9.43784
    endloop
  endfacet
  facet normal 1 1.76644e-16 -3.21221e-16
    outer loop
      vertex 1.28417e-16 -0.370138 9.27102
      vertex 1.94701e-16 -0.561187 9.37231
      vertex 0 -2.5 7.7
    endloop
  endfacet
  facet normal 1 1.24977e-16 -2.6132e-16
    outer loop
      vertex 1.94701e-16 -0.561187 9.37231
      vertex 2.5188e-16 -0.725996 9.5123
      vertex 0 -2.5 7.7
    endloop
  endfacet
  facet normal 1 7.17384e-17 -2.09206e-16
    outer loop
      vertex 0 -2.5 7.7
      vertex 2.5188e-16 -0.725996 9.5123
      vertex 2.97282e-16 -0.856857 9.68445
    endloop
  endfacet
  facet normal 1 1.37371e-16 -2.75689e-16
    outer loop
      vertex -1.94701e-16 0.561187 11.0277
      vertex -2.24607e-16 0.647386 10.9622
      vertex 0 2.5 12.7
    endloop
  endfacet
  facet normal 1 9.90403e-17 -2.34827e-16
    outer loop
      vertex -2.24607e-16 0.647386 10.9622
      vertex -2.762e-16 0.796093 10.8052
      vertex 0 2.5 12.7
    endloop
  endfacet
  facet normal 1 4.19639e-17 -1.83501e-16
    outer loop
      vertex 0 2.5 12.7
      vertex -2.762e-16 0.796093 10.8052
      vertex -3.14878e-16 0.907575 10.6199
    endloop
  endfacet
  facet normal 1 0 0
    outer loop
      vertex 0 5.2 7.7
      vertex 0 2.5 7.7
      vertex 0 3.2 7.2
    endloop
  endfacet
  facet normal 1 -5.46329e-17 -7.64861e-17
    outer loop
      vertex 0 2.5 7.7
      vertex -1.87832e-17 0.0541389 9.20147
      vertex 0 3.2 7.2
    endloop
  endfacet
  facet normal 1 9.54875e-19 1.08856e-17
    outer loop
      vertex 0 3.2 7.2
      vertex -1.87832e-17 0.0541389 9.20147
      vertex 0 -2.5 7.7
    endloop
  endfacet
  facet normal 1 3.18269e-16 -5.28896e-16
    outer loop
      vertex -1.87832e-17 0.0541389 9.20147
      vertex 5.61294e-17 -0.161782 9.21317
      vertex 0 -2.5 7.7
    endloop
  endfacet
  facet normal 1 2.35577e-16 -4.01116e-16
    outer loop
      vertex 0 -2.5 7.7
      vertex 5.61294e-17 -0.161782 9.21317
      vertex 1.28417e-16 -0.370138 9.27102
    endloop
  endfacet
  facet normal 1 1.37371e-16 2.75689e-16
    outer loop
      vertex -2.24607e-16 0.647386 9.43784
      vertex -1.94701e-16 0.561187 9.37231
      vertex 0 2.5 7.7
    endloop
  endfacet
  facet normal 1 1.63113e-16 3.05533e-16
    outer loop
      vertex -1.94701e-16 0.561187 9.37231
      vertex -1.62512e-16 0.468408 9.31649
      vertex 0 2.5 7.7
    endloop
  endfacet
  facet normal 1 2.0449e-16 3.57535e-16
    outer loop
      vertex 0 2.5 7.7
      vertex -1.62512e-16 0.468408 9.31649
      vertex -9.28175e-17 0.267528 9.23645
    endloop
  endfacet
  facet normal 1 -3.12717e-17 1.27436e-16
    outer loop
      vertex 3.38833e-16 -0.976621 10.415
      vertex 3.14878e-16 -0.907575 10.6199
      vertex 0 -2.5 12.7
    endloop
  endfacet
  facet normal 1 4.19639e-17 1.83501e-16
    outer loop
      vertex 3.14878e-16 -0.907575 10.6199
      vertex 2.762e-16 -0.796093 10.8052
      vertex 0 -2.5 12.7
    endloop
  endfacet
  facet normal 1 9.90403e-17 2.34827e-16
    outer loop
      vertex 0 -2.5 12.7
      vertex 2.762e-16 -0.796093 10.8052
      vertex 2.24607e-16 -0.647386 10.9622
    endloop
  endfacet
  facet normal 1 2.04489e-16 3.57534e-16
    outer loop
      vertex 1.62512e-16 -0.468408 11.0835
      vertex 9.28175e-17 -0.267528 11.1636
      vertex 0 -2.5 12.7
    endloop
  endfacet
  facet normal 1 2.72201e-16 4.5592e-16
    outer loop
      vertex 9.28175e-17 -0.267528 11.1636
      vertex 1.87832e-17 -0.0541389 11.1985
      vertex 0 -2.5 12.7
    endloop
  endfacet
  facet normal 1 0 1.25099e-17
    outer loop
      vertex 0 -2.5 12.7
      vertex 1.87832e-17 -0.0541389 11.1985
      vertex 0 2.5 12.7
    endloop
  endfacet
  facet normal 1 3.63341e-16 -6.05569e-16
    outer loop
      vertex 1.87832e-17 -0.0541389 11.1985
      vertex 2.12442e-32 1.1224e-16 11.2
      vertex 0 2.5 12.7
    endloop
  endfacet
  facet normal 1 3.05489e-16 -5.09148e-16
    outer loop
      vertex 0 2.5 12.7
      vertex 2.12442e-32 1.1224e-16 11.2
      vertex -5.61294e-17 0.161782 11.1868
    endloop
  endfacet
  facet normal 1 8.29654e-18 -1.56676e-16
    outer loop
      vertex 2.97282e-16 -0.856857 9.68445
      vertex 3.28783e-16 -0.947653 9.8807
      vertex 0 -2.5 7.7
    endloop
  endfacet
  facet normal 1 -7.98323e-17 -9.39405e-17
    outer loop
      vertex 3.28783e-16 -0.947653 9.8807
      vertex 3.44911e-16 -0.994138 10.0919
      vertex 0 -2.5 7.7
    endloop
  endfacet
  facet normal 1 -2.29045e-16 0
    outer loop
      vertex 0 -2.5 7.7
      vertex 3.44911e-16 -0.994138 10.0919
      vertex 0 -2.5 12.7
    endloop
  endfacet
  facet normal 1 -2.8874e-16 -3.44659e-17
    outer loop
      vertex 3.44911e-16 -0.994138 10.0919
      vertex 3.46945e-16 -1 10.2
      vertex 0 -2.5 12.7
    endloop
  endfacet
  facet normal 1 -1.42567e-16 5.32378e-17
    outer loop
      vertex 0 -2.5 12.7
      vertex 3.46945e-16 -1 10.2
      vertex 3.38833e-16 -0.976621 10.415
    endloop
  endfacet
  facet normal 0 0 -1
    outer loop
      vertex -5.2 -3.2 7.2
      vertex -5.2 3.2 7.2
      vertex 0 -3.2 7.2
    endloop
  endfacet
  facet normal 0 0 -1
    outer loop
      vertex -5.2 3.2 7.2
      vertex 0 3.2 7.2
      vertex 0 -3.2 7.2
    endloop
  endfacet
  facet normal 0 1 0
    outer loop
      vertex -2 2.5 12.7
      vertex 0 2.5 12.7
      vertex -2 2.5 7.7
    endloop
  endfacet
  facet normal 0 1 0
    outer loop
      vertex 0 2.5 12.7
      vertex 0 2.5 7.7
      vertex -2 2.5 7.7
    endloop
  endfacet
  facet normal 0 -1 0
    outer loop
      vertex 0 -2.5 12.7
      vertex -2 -2.5 12.7
      vertex 0 -2.5 7.7
    endloop
  endfacet
  facet normal 0 -1 0
    outer loop
      vertex -2 -2.5 12.7
      vertex -2 -2.5 7.7
      vertex 0 -2.5 7.7
    endloop
  endfacet
  facet normal 1.73472e-16 -0.5 0.866025
    outer loop
      vertex -0.5 -3.16587e-15 7.8906
      vertex -0.5 2 9.0453
      vertex -2 -3.68629e-15 7.8906
    endloop
  endfacet
  facet normal 0 -0.5 0.866025
    outer loop
      vertex -0.5 2 9.0453
      vertex -2 2 9.0453
      vertex -2 -3.68629e-15 7.8906
    endloop
  endfacet
endsolid Mesh
